<?xml version="1.0" encoding="UTF-8"?>
<svg id="Layer_1" xmlns="http://www.w3.org/2000/svg" version="1.1" viewBox="0 0 1024 1024">
  <!-- Generator: Adobe Illustrator 29.7.1, SVG Export Plug-In . SVG Version: 2.1.1 Build 8)  -->
  <g>
    <polygon points="218.5 315 192.5 315 192.5 288 217 288 218.5 289.5 218.5 315"/>
    <rect x="222.5" y="334" width="26" height="26"/>
    <path d="M212.5,366v26h-26c-.3-.7,1-1.2,1-1.5v-24.5h25Z"/>
    <polygon points="267.5 391 267.5 416 241.5 416 242.5 391 267.5 391"/>
    <g>
      <path d="M722.5,153v20.5c0,.5-1.9,2.9-2.6,3.4l-5.5,1.7,1,80,6.1.9,1.9,4.1-.2,46.7c-1.3,6.2-6.8,2.6-8.6,3.9l-17.2,41.3v19s-21.5,43.4-21.5,43.4c-2.4,2.4-5.5,2.7-8.5,1-2.9,20.9-3.1,42.5-6.1,63.4-1,7.3-2.1,14.9-5.4,21.6-3.2,0-5-9.1-5.4-11.6-2.8-16.4-3.6-37-5.1-53.9-.5-6.1-.2-12.4-1-18.5-3,0-6.3.4-8.4-2.1l-22.6-41.4-.4-23.6-16.6-37.4-6.5-2.5c-1-.8-1.9-3.5-2.2-4.8-1.2-6.8-1.2-36.7,0-43.5,1.5-8.7,9.3-4.3,9.6-7.2v-78.1s-7.8-4.9-7.8-4.9v-20.5c-5.8-.3-17.1,1.9-18.8-5.7l-.2-48.7,2.4-4.6,163.9-.7c2.5,1.2,3.4,3.7,3.7,6.3,1.6,15.2-1.1,33.3-.2,48.8l-2.4,3.6-15.3.2ZM690.5,102l-109.5.2-1.5,1.3v40l1.6,1.4c24.6.7,49.4-.3,74-.4,9.8,0,20.2-.2,29.8.6s3.7,0,5.5,0v-43ZM680.5,154h-82v16h82v-16ZM676.5,178h-70v81h70v-81ZM603.5,268l-6.5-.8-1.5,1.3v37.5h8v-38ZM621.5,268c-4.6-.3-9.7,1-14-1v39h14v-38ZM669.5,269.5c1.5,11-1.1,25.1,0,36.5h7c.3-8.5-.3-17.1,0-25.5,0-2.4,2.9-12.9-.4-13.2l-7.5.8c-.5.4,1,1.2,1,1.5ZM640.5,268h-15v38h15v-38ZM662.5,268h-16v38h16v-38ZM691.5,306v-38h-1v38h1ZM705.5,306v-38h-1v38h1ZM674.5,314h-68l14.9,36.4,41.2.2,11.9-36.6ZM663.5,360h-41v16h41v-16ZM661.5,384h-34l14.6,25.9,13.9-.8,5.5-25Z"/>
      <path d="M229.5,458v-27h27c-2.7,4.3,0,9.5,0,13.5s-1.7,4.9-.9,7.4c5.2,1.5,10.4,2.9,15.7,3.8,16.9,2.9,30.5,2.4,47.2-1.2,41.6-8.8,78.8-39.5,88-82.1l-.4-1.4c-10.1-5.5-11.6-18-2.5-25.4s3.6-1.3,4.4-2.6c1.3-2,3-15,4-19,11.4-42.9,40.8-71.3,82.3-85.7,2.4-.8,12.1-2.8,13-3.5s.9-2.6,1.8-3.7c13-16.1,34.1-1.3,26.9,14.9-3.6,8.1-15.2,10.3-22.4,5.6s-3.6-4.3-5-4.9c-3.8-1.8-13.3,2-17.5,3.5-42.5,14.9-67.6,48.6-72.3,93.3,12,9.4,10.9,25.4-4.6,29.7-3,13-6.2,25.4-13.1,36.9-24.9,42-90.1,65.5-136.6,52.8-2.5-.7-11.6-4.7-12.3-4.7h-22.5Z"/>
      <g>
        <path d="M606.2,472.2l1.1,3.1-3.6,2.4-410.3,61.2,165.7,114.9c2.3.8,4.1-1.1,6.1-1.6,154.4-38.8,308.4-81.1,463.2-117.8,3.8-.9,8.2-1.4,12-1.9l1-1.5c-16.9-3.5-33.6-7.8-50.2-12.3-25.6-6.8-52.4-13.7-77.5-21.5-3.1-1-17.9-5.5-19.3-6.7s-1.4-6,.6-6.5l162.7,44.2,2.8,2.2v33.1s-500.3,139.3-500.3,139.3c-25.2-15.7-49-33.8-73.4-50.7-32.7-22.6-68.1-44.7-99.6-68.4-3.7-2.8-7.6-4.6-8.4-9.6-1.9-11,.8-26.1,0-37.6,1.1-4.1,4.8-5.5,8.5-6.5l411.8-60.3,7.3,2.3ZM354.5,688v-27.5l-166-114.5v26.5l166,115.5Z"/>
        <path d="M687.1,536.7c3.4-3.3,6.6-9.7,9.8-12.7s1.2-.8,2.5.5c-3.4,10.7-14.1,28.4-27.2,26.3-13-2.1-7.3-20.9-7.7-29.8-2.8-.5-4.3,1.6-6,3.5-5.3,5.9-8.7,15.1-11.5,22.5s-1.3,11-7.8,10.9c-1-.4-1.6-1.1-2.2-1.9-2.9-3.9.1-15.2.5-20.5s-.1-5.7,0-8.5c-1.1,0-2.2-.2-3.3.2-5.1,1.8-13.3,18.9-15.9,24.1s-3.2,12-7.8,13.3c-2.1.6-4.8-.8-5-3.1l1.5-19.5-9.5,5.5c-3.7,9.9-7.9,19.6-18.5,23.5-10.2,3.9-17.8,1.6-23-8-7,13.4-31.1,28.6-32,3-2.7,6.5-7.2,8.1-12,12s-3.5,4-5.6,5.4c-8.1,5.8-19.9,7.2-25.4-2.4-6.9,11-23.1,21.7-28,3-3.3,5.5-5.9,13.1-12.3,15.7-5.4,2.2-16.4,2.8-18-4.4s.8-10.4-2.2-8.3c-8.5,16.6-27.3,28.9-45.6,31.9-20.2,3.2-37.2-4.5-39.3-26.5-2.9-30.5,35.9-79.7,68.3-76.3,21.6,2.3,18.6,30.6,4.5,40.3s-24.2-8.9-7.9-16.4v11c1.7,1.8,7.7-8.1,8.5-10,1.4-3.7,2.8-10.1.6-13.5-9.1-8.5-22.4-.7-30.5,5.6-12.4,9.6-25,27.7-29,43-7.9,30.4,14.2,42.2,40.2,30.2,12.8-5.9,27.2-21.8,33.8-34.2s6.7-18.7,10.4-19.6c2.9,0,5,2.1,5.2,5.1.3,8.2-9.3,25-6.9,32.8s4.5,3,7.2,1.6c9.5-5.3,14.8-28.3,20.2-37.8s7-9.3,10.4-2.6c-1.8,9-7.2,19-7.9,28.1s.9,9.6,6.4,5.4,16.7-18.9,20.7-26.3,6.8-22,14.2-19.6c5.2,1.7.3,7.4-.2,9.6-1.5,7.1,9,13.1,9.3,20.3,10.3-8,13.7-19.3,16.5-31.5l-11.9-1.6,2-5.4,11.8-1.7c2-4.7,3.8-16.9,9.8-17.7s1.6,12.4.3,15.8l24.5-3c2.2,4.3-2,5.5-5.2,6.8-6.7,2.7-14,2.8-20.8,5.2-2.2,9.6-7.3,22.8-5.5,32.5s13.9-5.3,16-8c6.5-8.3,6.6-19.4,15-26s5-2.5,7.9-4.1c4.6-2.4,5.7-5.2,12.3-4.2s9.3,6.2,11.7,12.4c.4,1-.5,1.9,1.5,1.3s9-5.6,9.7-6.6c1.8-2.9,1.9-13.7,8.2-12.2s2.2,9.2,1.8,12.5-.7,2.7.9,2.4c3.5-9,15.5-24.8,26.1-17.3,2.1,4.4,1.9,6.6,1.2,11.1s-1,2.5.7,2.2c2-7.7,12.7-22.9,21.4-22,13.3,3.6.7,25,5.1,32s11.1-3.3,13.2-5.4ZM588.5,542l-.9-7.6-6.1-.9c-1.7,1,.4,3.2,1,4s5,5.6,6,4.5ZM587.5,549c-7.8.7-12-5-15.5-11-8.2,6.5-11.1,29.2,4,26.9s9.7-10.8,11.5-15.9ZM497.5,559c-2.6-.5-1.5.4-2.1,1.4-2.4,4.6-5.1,8.8-7.7,13.2l1.3,3.3c5,4,12.3,2.9,14.3-3.7l-5.9-14.3Z"/>
        <path d="M811.5,532l-7.8,2.7c-137.3,32.7-273.9,68.3-411.2,100.8-9,2.1-21.4,6-30.2,6.8s-2.4,0-3.8-.4c-3-2.5,11-5.3,12-5.5,80.3-20.5,161.5-38.3,242-58,62.7-15.3,125.3-31.3,188-46.5.2-1.5-1.7-1.3-2.8-1.7-31-10.4-64.6-17-96-27-2.7-.8-5.7-1.7-8.2-2.8s-2.4.1-2-2.5l120,34ZM797,534v1c.6-.3.6-.7,0-1ZM445,620v1c.6-.3.6-.7,0-1Z"/>
        <path d="M606.5,488l-184,29c-2.4-2,5.9-3.5,6.8-3.7l175.6-28.2,1.6,2.9ZM482,506v1c.6-.3.6-.7,0-1Z"/>
        <path d="M357.5,525c3,2.5-8.9,4.5-9.8,4.7-38.4,7.7-78.3,11.8-116.8,19.3l-5.4-1,5.8-2.7,126.2-20.3Z"/>
        <path d="M667.5,499c-1.8-1.8,8.3-15.3,10-17.5,4.2-5.4,9.7-11.5,14.5-16.5s5.7-6.3,7-6c3,.6,0,5.1-.7,6.3-3.8,6.9-19.3,29.2-25.4,32.6-1.8,1-3.3,1.4-5.4,1.1Z"/>
        <path d="M615,466c2.7-.5,21,17.4,23.5,20.5s7,8.9,3.5,11.5c-2.5,0-19.9-17.4-22.5-20.5s-9-10.6-4.5-11.5Z"/>
      </g>
    </g>
  </g>
  <g>
    <path d="M145.8,765.5c-3.3.3-5.8,1.7-7.5,4.1-1.8,2.4-3.1,5-4,7.9-.2.5-.3,1.1-.5,1.7-.2.6-.3,1.1-.4,1.7h-2.1c0,0,.3-17.2.3-17.2h49l.3,17.1h-2.1c-.1-.5-.3-1-.4-1.6-.2-.6-.3-1.1-.5-1.7-.9-2.9-2.2-5.5-4-7.9-1.8-2.4-4.3-3.8-7.5-4v42.7h6.1v1.8h-32.9v-1.8h6.2v-42.8Z"/>
    <path d="M250.7,782h14.7v2.1h-1.5c-.8,0-1.7.6-2.7,1.6-1,1-2.3,2.5-4,4.5l-4.2,4.9,4.1,5.8c0,.1.2.2.2.3,0,0,.1.2.2.3.4.6.9,1.2,1.5,1.6.5.4,1.2.6,2,.6s1.7-.3,2.4-.9c.7-.6,1.2-1.3,1.7-2.1,0-.1.2-.3.3-.5.1-.2.2-.3.3-.5l1.5.8c-1.5,3.4-3.7,6.1-6.5,7.9-2.8,1.8-6.2,2.7-9.9,2.7s-4.8-.3-6.9-1c-2.2-.7-4.1-1.9-5.9-3.7-2.3,1.4-4.7,2.5-7.3,3.4-2.6.9-5.6,1.3-8.9,1.3-5.9,0-10-1.2-12.4-3.8-2.4-2.5-3.7-5.3-3.9-8.3v-.9c0-3.8,1.4-6.7,4.1-8.8,2.7-2.1,5.8-3.8,9-4.9.8-.3,1.7-.5,2.5-.7.8-.2,1.6-.4,2.3-.6-.8-1.5-1.6-3-2.2-4.7-.6-1.6-1-3.3-1-5.1,0-3.3,1.2-5.6,3.5-7.1,2.3-1.5,4.9-2.5,7.7-2.9.8-.1,1.5-.2,2.3-.3.8,0,1.5,0,2.2,0,4.1,0,7.3.8,9.5,2.4,2.2,1.6,3.4,3.5,3.4,5.6s-.6,3.3-1.9,4.4c-1.3,1.1-2.6,1.9-4.2,2.5,0,0,0,0-.1,0,0,0,0,0-.1,0l9.3,15.3.3-.3c.1-.1.2-.2.3-.3.7-.8,1.3-1.6,1.8-2.4s.8-1.8.8-2.8-.2-1.5-.6-1.9c-.4-.5-.8-.8-1.3-1.1-.2,0-.4-.2-.5-.2-.2,0-.4,0-.5,0h-1.5v-2.1ZM224.1,784.8c-1.1.3-1.9.8-2.5,1.5-.5.7-.8,1.6-.8,2.7s0,1.2.2,1.8c.1.6.3,1.2.5,1.8.3.8.7,1.5,1,2.3.4.8.8,1.5,1.2,2.1.3.5.6,1,.9,1.4.3.5.5.9.8,1.4,0,.2.2.4.3.6.1.2.3.4.4.6.8,1.3,1.8,2.4,2.9,3.4,1.2,1,2.5,1.5,4.1,1.5s1.2,0,1.8-.2c.6-.2,1.1-.4,1.7-.7-1.8-2.4-3.5-4.8-5-7.4-1.6-2.5-3.1-5.1-4.6-7.6-.2-.2-.3-.5-.5-.7s-.3-.5-.4-.7c-.4-.6-.7-1.2-1.1-1.8-.4-.6-.7-1.2-1.1-1.8h0ZM237.2,768.2l3.8,6.9c.2.4.4.7.7,1,.2.3.4.4.7.4s.2,0,.3,0c.1,0,.2,0,.4,0,.3-.2.6-.5.9-.9.3-.4.4-1.1.4-1.9s0-1-.3-1.7c-.2-.7-.4-1.4-.8-2.2-.5-1.2-1.2-2.3-2-3.3-.8-1-1.7-1.5-2.7-1.5s-.9.1-1.2.4c-.4.3-.6.7-.6,1.3s0,.5.1.8c0,.3.2.6.4,1h0Z"/>
    <path d="M335.7,779.2h-2.1c-.2-.5-.4-1.1-.6-1.7-.2-.6-.5-1.2-.8-1.9-1.1-2.5-2.6-4.7-4.5-6.7-1.9-2-4.2-3-6.9-3s-4.3.8-5.6,2.4c-1.3,1.6-1.9,6.1-1.9,13.5v12.9c0,5.5.8,9.1,2.3,10.8,1.6,1.6,3.5,2.4,5.8,2.4,3.6,0,6.5-1.3,8.7-4,2.2-2.7,3.6-5.6,4.3-8.8,0,0,0-.2,0-.2,0,0,0-.1,0-.2h2.1c-.6,5.4-2.7,9.5-6.3,12.3-3.6,2.8-8.1,4.2-13.4,4.2s-13.5-2.2-18.1-6.6c-4.7-4.4-7-10.4-7-17.9s2.4-12.5,7.1-17.1c4.8-4.5,10.5-6.8,17.3-6.8s1.9,0,2.6.1c.8,0,1.6.2,2.3.4.6.2,1.3.4,1.9.6.6.2,1.4.4,2.1.7.2,0,.4.1.5.2.2,0,.4.2.5.3,0,0,.2,0,.3.1,0,0,.2,0,.3.1.2,0,.5.2.7.3.3,0,.6.1.9.1s.5,0,.7-.1c.2,0,.4-.2.6-.3,0,0,.2,0,.2-.1,0,0,.1,0,.2-.1,0,0,0,0,.1,0,0,0,0,0,.1-.1l3.6-2.1h1.7v16.5Z"/>
    <path d="M361.3,810.2v-1.8h5v-42.8h-5v-1.8h45l.3,16.3h-2.2c-.9-3.7-2.5-7-4.8-9.9-2.3-3-5.2-4.5-8.9-4.5h-4.1c0,0,0,20.2,0,20.2h1.1c.4,0,.9,0,1.5-.2.6-.2,1.2-.5,1.7-.9.9-.7,1.8-1.6,2.6-2.9.8-1.3,1.3-3,1.5-5.1h2.2c0,0,0,20.4,0,20.4h-2.2c-.2-2.2-.7-4-1.5-5.3-.8-1.3-1.7-2.3-2.6-2.9-.6-.4-1.2-.8-1.7-.9-.6-.2-1.1-.3-1.5-.3h-1.1v20.6h4.6c.3,0,.5,0,.8,0,.3,0,.6,0,.8-.1,2.3-.4,4.5-1.8,6.7-4.1,2.2-2.3,4.1-6.2,5.7-11.6h2c0,0-.3,17.6-.3,17.6h-45.6Z"/>
    <path d="M409.5,810.2v-1.8h1.7c1.3,0,2.3-.5,2.8-1.7.6-1.2.9-2.5.9-4v-33.5c0,0-.2-.1-.2-.2,0-.1-.1-.2-.2-.3,0,0,0,0,0-.1,0,0,0,0,0-.1-.5-.7-1.1-1.4-1.7-1.9-.6-.6-1.3-.8-2.1-.8h-1v-1.8h25.5l18.2,24.9v-19.7c0-.9-.4-1.7-1.3-2.3-.9-.6-2-1-3.2-1h-1.3v-1.9h13.8v1.8h-2c-1.7,0-2.7.7-3,2-.3,1.3-.4,3.2-.4,5.9v.2h0v36.6h-11.3l-27.1-37.3v29.7c0,1.5.3,2.8.8,4,.5,1.2,1.5,1.8,3,1.8h2.1c0,0,0,1.7,0,1.7h-13.8Z"/>
    <path d="M477,765.5c-3.3.3-5.8,1.7-7.5,4.1-1.8,2.4-3.1,5-4,7.9-.2.5-.3,1.1-.5,1.7-.2.6-.3,1.1-.4,1.7h-2.1c0,0,.3-17.2.3-17.2h49l.3,17.1h-2.1c-.1-.5-.3-1-.4-1.6-.2-.6-.3-1.1-.5-1.7-.9-2.9-2.2-5.5-4-7.9-1.8-2.4-4.3-3.8-7.5-4v42.7h6.1v1.8h-32.9v-1.8h6.2v-42.8Z"/>
    <path d="M514,810.2v-1.8h5v-42.8h-5v-1.8h45l.3,16.3h-2.2c-.9-3.7-2.5-7-4.8-9.9-2.3-3-5.2-4.5-8.9-4.5h-4.1c0,0,0,20.2,0,20.2h1.1c.4,0,.9,0,1.5-.2.6-.2,1.2-.5,1.7-.9.9-.7,1.8-1.6,2.6-2.9.8-1.3,1.3-3,1.5-5.1h2.2c0,0,0,20.4,0,20.4h-2.2c-.2-2.2-.7-4-1.5-5.3-.8-1.3-1.7-2.3-2.6-2.9-.6-.4-1.2-.8-1.7-.9-.6-.2-1.1-.3-1.5-.3h-1.1v20.6h4.6c.3,0,.5,0,.8,0,.3,0,.6,0,.8-.1,2.3-.4,4.5-1.8,6.7-4.1,2.2-2.3,4.1-6.2,5.7-11.6h2c0,0-.3,17.6-.3,17.6h-45.6Z"/>
    <path d="M567.3,765.5h-5v-1.8h34.6c6.9,0,11.7,1.2,14.5,3.5,2.8,2.3,4.2,4.9,4.2,7.8s-1.1,5.4-3.3,6.9c-2.2,1.5-4.7,2.5-7.4,2.9-.4,0-.9.2-1.4.2-.5,0-.9,0-1.4.1v.6c4.2.5,7.4,2,9.6,4.4,2.1,2.5,3.2,5.7,3.2,9.7v.3c0,1.7,0,3.1.2,4.3.2,1.2.7,1.7,1.6,1.7s.9-.2,1.3-.5.8-.7,1.1-1.1c.1-.2.3-.3.4-.5.1-.2.2-.3.3-.4l1.8.9c-1.2,2-2.8,3.5-5.1,4.7s-5,1.7-8.3,1.7-7.7-1-10.2-3.1c-2.5-2.1-3.7-5.3-3.8-9.8,0-5.6-.4-9-1-10.2-.6-1.2-1.8-1.8-3.6-1.8h-2.3v22.2h5.6v1.8h-30.8v-1.8h5.2v-42.8ZM587.3,784.1h2.5c1.6,0,2.7-.4,3.6-1.4.8-1,1.2-3.5,1.2-7.5v-4.5c0-1.3-.5-2.5-1.2-3.6-.7-1.1-1.8-1.6-3-1.6h-3c0,0,0,18.5,0,18.5Z"/>
    <path d="M621.9,810.2v-1.8h5.2v-42.8h-5.1v-1.8h34.4c6.5,0,11.2,1.3,14.1,3.8,2.9,2.5,4.6,5.2,5,8.1,0,.3,0,.6.1.9,0,.3,0,.6,0,.9s0,.5,0,.8c0,.3,0,.6-.1.8-.4,3-2,5.8-4.9,8.3s-7.6,3.8-14.2,3.8h-9.2v17.2h6.2v1.8h-31.6ZM647.3,789.3h2.5c1.5,0,2.6-.5,3.5-1.6.9-1.1,1.3-3,1.3-5.7v-10.3c0-.2,0-.4,0-.6-.1-1.4-.6-2.6-1.3-3.8-.7-1.1-2-1.7-3.9-1.7h-2.1c0,0,0,23.7,0,23.7Z"/>
    <path d="M682.7,765.5h-5v-1.8h34.6c6.9,0,11.7,1.2,14.5,3.5,2.8,2.3,4.2,4.9,4.2,7.8s-1.1,5.4-3.3,6.9c-2.2,1.5-4.7,2.5-7.4,2.9-.4,0-.9.2-1.4.2-.5,0-.9,0-1.4.1v.6c4.2.5,7.4,2,9.6,4.4,2.1,2.5,3.2,5.7,3.2,9.7v.3c0,1.7,0,3.1.2,4.3.2,1.2.7,1.7,1.6,1.7s.9-.2,1.3-.5.8-.7,1.1-1.1c.1-.2.3-.3.4-.5.1-.2.2-.3.3-.4l1.8.9c-1.2,2-2.8,3.5-5.1,4.7s-5,1.7-8.3,1.7-7.7-1-10.2-3.1c-2.5-2.1-3.7-5.3-3.8-9.8,0-5.6-.4-9-1-10.2-.6-1.2-1.8-1.8-3.6-1.8h-2.3v22.2h5.6v1.8h-30.8v-1.8h5.2v-42.8ZM702.6,784.1h2.5c1.6,0,2.7-.4,3.6-1.4.8-1,1.2-3.5,1.2-7.5v-4.5c0-1.3-.5-2.5-1.2-3.6-.7-1.1-1.8-1.6-3-1.6h-3c0,0,0,18.5,0,18.5Z"/>
    <path d="M738.2,810.2v-1.8h5.1v-42.8h-5.1v-1.8h31v1.8h-5.1v42.8h5.1v1.8h-31Z"/>
    <path d="M791.1,775.4l13.7,7c2.1,1.2,4,3,5.6,5.5,1.6,2.5,2.4,5.3,2.4,8.4,0,5.4-1.9,9.1-5.7,11.3-3.8,2.2-8,3.4-12.6,3.6-.3,0-.5,0-.8,0h-.9c-.3,0-.6,0-1,0-.4,0-.7,0-1-.1-1.5-.2-3-.5-4.5-1.1-1.5-.5-2.9-1.2-4.2-1.9l-7.2,3.1h-1.7l-.5-16.6h2.1c1.7,4,4.2,7.4,7.4,10.4,3.2,3,7.1,4.5,11.7,4.5s.5,0,.8,0c.3,0,.5,0,.8-.1,1.2-.2,2.3-.6,3.3-1.3,1-.7,1.5-1.7,1.5-3.1s-.5-2.7-1.6-3.7c-1.1-.9-2.2-1.7-3.5-2.3-.4-.2-.8-.3-1.2-.5-.4-.2-.7-.3-1.1-.5l-5.1-2.3c-4.9-2.1-8.5-4.7-11-7.6-2.5-2.9-3.7-6.2-3.7-9.8s1.6-8.7,4.7-11.4c3.1-2.7,7-4,11.7-4s3.7.3,5.5.8c1.8.5,3.5,1.2,5.2,2l7.2-2.8h1.5l.5,15.3h-1.8c-1.7-3.6-4-6.7-7-9.4-3-2.7-6.7-4.1-10.9-4.1s-.4,0-.6,0c-.2,0-.4,0-.6.1-1.1.2-2.1.6-3,1.3-.9.7-1.4,1.7-1.4,2.9s.5,2.3,1.4,3.1c.9.8,2,1.5,3.1,2.1.4.2.9.4,1.3.7.4.2.8.4,1.2.6h0Z"/>
    <path d="M815.5,810.2v-1.8h5v-42.8h-5v-1.8h45l.3,16.3h-2.2c-.9-3.7-2.5-7-4.8-9.9-2.3-3-5.2-4.5-8.9-4.5h-4.1c0,0,0,20.2,0,20.2h1.1c.4,0,.9,0,1.5-.2.6-.2,1.2-.5,1.7-.9.9-.7,1.8-1.6,2.6-2.9.8-1.3,1.3-3,1.5-5.1h2.2c0,0,0,20.4,0,20.4h-2.2c-.2-2.2-.7-4-1.5-5.3-.8-1.3-1.7-2.3-2.6-2.9-.6-.4-1.2-.8-1.7-.9-.6-.2-1.1-.3-1.5-.3h-1.1v20.6h4.6c.3,0,.5,0,.8,0,.3,0,.6,0,.8-.1,2.3-.4,4.5-1.8,6.7-4.1,2.2-2.3,4.1-6.2,5.7-11.6h2c0,0-.3,17.6-.3,17.6h-45.6Z"/>
    <path d="M884.2,775.4l13.7,7c2.1,1.2,4,3,5.6,5.5,1.6,2.5,2.4,5.3,2.4,8.4,0,5.4-1.9,9.1-5.7,11.3-3.8,2.2-8,3.4-12.6,3.6-.3,0-.5,0-.8,0h-.9c-.3,0-.6,0-1,0-.4,0-.7,0-1-.1-1.5-.2-3-.5-4.5-1.1-1.5-.5-2.9-1.2-4.2-1.9l-7.2,3.1h-1.7l-.5-16.6h2.1c1.7,4,4.2,7.4,7.4,10.4,3.2,3,7.1,4.5,11.7,4.5s.5,0,.8,0c.3,0,.5,0,.8-.1,1.2-.2,2.3-.6,3.3-1.3,1-.7,1.5-1.7,1.5-3.1s-.5-2.7-1.6-3.7c-1.1-.9-2.2-1.7-3.5-2.3-.4-.2-.8-.3-1.2-.5-.4-.2-.7-.3-1.1-.5l-5.1-2.3c-4.9-2.1-8.5-4.7-11-7.6-2.5-2.9-3.7-6.2-3.7-9.8s1.6-8.7,4.7-11.4c3.1-2.7,7-4,11.7-4s3.7.3,5.5.8c1.8.5,3.5,1.2,5.2,2l7.2-2.8h1.5l.5,15.3h-1.8c-1.7-3.6-4-6.7-7-9.4-3-2.7-6.7-4.1-10.9-4.1s-.4,0-.6,0c-.2,0-.4,0-.6.1-1.1.2-2.1.6-3,1.3-.9.7-1.4,1.7-1.4,2.9s.5,2.3,1.4,3.1c.9.8,2,1.5,3.1,2.1.4.2.9.4,1.3.7.4.2.8.4,1.2.6h0Z"/>
  </g>
  <g>
    <path d="M292.9,853.9c-.1.1-.3.2-.6.2-.2,0-.5,0-.7,0-.5,0-1,0-1.5,0-.5,0-.8,0-1.1,0s-.7,0-1.2,0-1.1.1-1.7.2c-.6,0-1.2.2-1.8.3-.6.1-1.2.2-1.7.3-.5.1-1,.2-1.4.3-.4.1-.6.2-.8.3,0,.1-.2.5-.3,1-.2.6-.3,1.3-.5,2.1s-.3,1.7-.4,2.7c-.1,1-.2,1.9-.2,2.8.7-.1,1.4-.3,2.1-.4.7-.2,1.5-.3,2.3-.5.4,0,.9-.2,1.4-.3.5-.1,1-.3,1.6-.4.5-.1,1-.3,1.5-.4.5-.1.9-.2,1.3-.2s.8,0,1.1,0c.3,0,.5,0,.7.2.2,0,.3.2.4.4,0,.2.1.5.1.8s0,.6-.2.9c-.2.3-.3.6-.6.8-.2.2-.5.4-1,.5-.5.2-1,.3-1.5.4-.5.1-1.1.2-1.5.3-.5,0-.8.2-1.1.2-.8.1-1.7.3-2.5.5-.8.2-1.6.3-2.2.5-.7.2-1.2.3-1.6.5-.4.2-.7.3-.7.4,0,.2-.2.5-.2.8,0,.3-.1.7-.1,1.1,0,.4,0,.8,0,1.3,0,.4,0,.9,0,1.3,0,.7,0,1.3,0,1.8,0,.5,0,1,0,1.5s0,.6,0,.9c0,.3-.1.5-.2.7-.1.2-.3.4-.6.5-.3.1-.6.2-1,.2h-.2c0,0-.1,0-.2,0,0,0-.2,0-.5-.2-.3,0-.5-.3-.8-.5-.3-.2-.5-.5-.8-.8s-.3-.7-.3-1.1c0-1.4,0-2.8.2-4.1s.3-2.6.4-3.7c0,0,0-.3.1-.7,0-.4.1-.9.2-1.5,0-.6.2-1.2.3-2,.1-.7.2-1.5.3-2.2.1-.8.2-1.5.3-2.2.1-.7.2-1.4.3-2,0-.6.2-1.1.2-1.5,0-.4,0-.6,0-.7,0-.2,0-.3,0-.5,0-.2-.1-.3-.2-.5s-.1-.3-.2-.5c0-.2,0-.4,0-.5s0-.5.2-.7c.2-.3.3-.5.6-.7.2-.2.5-.4.7-.5.3-.1.5-.2.7-.2.5,0,.9,0,1.3.1s.7.1,1,.1c.5,0,1,0,1.7-.2.6-.1,1.4-.2,2.2-.4.7-.1,1.4-.3,2.1-.4.7-.1,1.4-.2,2.1-.3.7-.1,1.3-.2,2-.2s1.2,0,1.8,0,.5,0,.7.2c.3.1.6.2.8.4s.5.3.7.6c.2.2.3.4.3.6,0,.4-.1.7-.3,1.1-.2.4-.6.8-1.2,1.2h0Z"/>
    <path d="M313.1,862.7c0,.1,0,.3,0,.4,0,.2-.1.4-.2.5,0,.2-.2.3-.4.5-.2.1-.3.2-.6.2,0,0-.2,0-.3,0s-.3,0-.5,0c-.2,0-.4,0-.5,0-.2,0-.3,0-.3,0-2,.1-3.8.8-5.3,2.2-.3.3-.7.7-1,1.1-.4.4-.7.9-1.1,1.4-.3.5-.7,1-1,1.6-.3.6-.6,1.1-.9,1.7-.2.5-.4,1-.6,1.5-.2.5-.4,1.1-.5,1.7,0,.3-.1.6-.2.8,0,.2-.1.5-.2.8,0,.2-.2.4-.3.5-.1.1-.3.3-.5.3-.2,0-.4.2-.6.2-.2,0-.4,0-.6,0-.8,0-1.3-.4-1.6-1.1-.3-.7-.4-1.8-.4-3.1s0-.6,0-.9c0-.3,0-.6,0-.8,0-.3,0-.6,0-.9s0-.7,0-1c0-.6.1-1.2.2-2,0-.8.2-1.6.3-2.4,0-.8.2-1.6.3-2.3.1-.8.2-1.4.4-1.9.1-.6.4-1.1.7-1.5s.9-.5,1.5-.5.4,0,.6.2c.2.1.4.2.5.4s.3.3.4.5c.1.2.2.3.2.5v.3c0,.3,0,.7,0,1.2,0,.5-.1.9-.2,1.5-.1.5-.2,1-.3,1.6-.1.5-.2,1-.3,1.5s-.2.9-.3,1.3c0,.4-.2.7-.2,1,.4-.9.9-1.8,1.4-2.6.5-.8,1-1.6,1.6-2.3.6-.7,1.2-1.3,1.8-1.9.6-.6,1.3-1,2.1-1.3.6-.3,1.1-.5,1.6-.6.5-.1.9-.2,1.3-.2s.9,0,1.4.1c.5,0,.9.2,1.3.4.4.2.7.4,1,.7.3.3.4.6.4.9Z"/>
    <path d="M339.8,862.1c0,.2,0,.4-.1.7,0,.2-.2.5-.4.7-.2.2-.3.4-.5.6-.2.2-.4.4-.6.5-.4.3-1.1.5-1.9.8-.8.2-1.8.3-3,.3s-.7,0-1.1,0c-.4,0-.8-.1-1.2-.2-.4,0-.8-.2-1.2-.3-.4-.1-.7-.3-1.1-.4,0,.1.1.3.2.4,0,.2,0,.4.1.6s0,.4,0,.6c0,.2,0,.3,0,.4,0,.8-.1,1.6-.4,2.3-.3.8-.6,1.5-1.1,2.2-.4.7-1,1.4-1.5,2-.6.6-1.2,1.1-1.7,1.6-.5.4-1,.7-1.6.9-.6.3-1.2.5-1.8.6-.6.2-1.3.3-2,.4-.7,0-1.4.1-2,.1s-1.1-.1-1.6-.4c-.5-.3-1-.6-1.4-1.1-.4-.4-.7-.9-.9-1.5-.2-.6-.4-1.1-.4-1.7,0-1,.1-1.9.4-2.8s.6-1.8,1-2.6c.4-.8.9-1.7,1.5-2.5s1.2-1.6,1.8-2.4c.4-.5.8-.9,1.3-1.3.5-.4,1-.8,1.5-1.2s1.1-.6,1.6-.8c.6-.2,1.1-.3,1.6-.3s.8,0,1.1.1c.3,0,.6.2.9.4.3.2.5.4.8.6.2.3.5.5.8.9l.4.4c0,0,.4.2.8.4.4.2.9.4,1.5.6.6.2,1.2.4,1.9.5s1.2.2,1.8.2,1.1,0,1.5,0c.5,0,1,0,1.5-.1.5,0,1-.2,1.5-.4.5-.2,1.1-.4,1.8-.7,0,.1.1.2.1.4,0,.2,0,.3,0,.4ZM325.7,866.2c0-.3,0-.6,0-.9,0-.3,0-.6-.2-.9s-.2-.5-.4-.7c-.2-.2-.4-.4-.7-.4-.4-.1-.8-.2-1-.4-.3-.1-.5-.2-.6-.4-.2-.1-.3-.2-.3-.3,0,0-.1-.1-.1-.1,0,0-.2,0-.4.2s-.4.4-.6.6-.4.5-.7.8c-.2.3-.4.6-.6.8-.3.3-.5.6-.7.9-.2.3-.4.6-.7.9-.2.3-.4.7-.6,1s-.4.7-.6,1.2c-.2.4-.3.9-.4,1.4,0,.6-.1,1.1-.1,1.6s0,.4,0,.6c0,.2.1.4.2.6s.2.3.4.4.4.2.6.2c.6,0,1,0,1.4,0s.7-.2,1.1-.3c.3-.1.7-.3,1-.6.3-.2.7-.5,1.2-.9.2-.2.4-.4.7-.6s.4-.5.7-.7c.2-.3.4-.5.6-.8.2-.3.4-.6.6-.8,0-.1.2-.3.2-.6,0-.2.1-.5.2-.7,0-.2,0-.5,0-.7,0-.2,0-.4,0-.4h0Z"/>
    <path d="M376.3,864.6c0,.1,0,.3,0,.4,0,.2-.1.4-.2.6,0,.2-.2.4-.3.6-.1.2-.2.4-.3.6-.2.3-.5.7-.8,1.1s-.7.8-1.1,1.3c-.4.4-.8.9-1.3,1.3-.4.4-.9.8-1.3,1.2-.4.3-.8.6-1.2,1-.5.4-1,.7-1.5,1-.5.3-1.1.6-1.6.8s-1.1.3-1.6.3-.9,0-1.4-.3c-.4-.2-.9-.5-1.2-1.1-.4-.5-.7-1.2-1-2.2-.3-.9-.5-2.1-.7-3.6,0-.1,0-.4,0-.7s0-.6,0-.9c0-.3,0-.6,0-.8,0-.2,0-.3,0-.3,0,0-.3.1-.5.4-.2.3-.5.7-.8,1.2-.3.5-.6,1-1,1.7-.4.6-.7,1.3-1.1,1.9-.5.8-.9,1.6-1.4,2.3-.4.7-.8,1.2-1.2,1.7s-.8.8-1.1,1c-.4.2-.7.4-1.1.4-.6,0-1-.1-1.4-.3-.4-.2-.6-.5-.8-1-.2-.4-.4-1-.4-1.7,0-.7-.1-1.5-.2-2.5,0-1.6,0-2.9-.2-3.8,0-.9-.2-1.3-.3-1.3s-.4.2-.7.6-.7.9-1.2,1.5-1,1.4-1.5,2.3-1.1,1.8-1.7,2.9c-.1.3-.3.6-.5.9-.2.4-.4.7-.6,1.1-.2.4-.4.7-.6,1.1-.2.3-.4.6-.6.9-.2.3-.5.6-.8.7-.3.2-.6.2-1,.2s-.9-.1-1.3-.3c-.4-.2-.6-.5-.9-.9-.2-.4-.4-.8-.5-1.3-.1-.5-.2-1-.2-1.6s0-.9,0-1.3c0-.4,0-.8.1-1.2,0-.4.1-.8.2-1.3,0-.4.1-1,.2-1.5,0-.5.1-1,.2-1.6,0-.6,0-1.1.1-1.7,0-.5,0-1,.1-1.5,0-.5.1-.8.2-1.1,0-.2.1-.4.2-.7s.2-.5.4-.7c.2-.2.4-.4.7-.5s.6-.2,1-.2.7,0,.9.2.4.3.5.6c.1.2.2.5.2.8s0,.6,0,1,0,.7-.1,1.2c0,.5-.2,1-.3,1.6s-.2,1.2-.4,1.9c-.1.6-.3,1.3-.4,1.9s-.2,1.1-.3,1.6-.2.9-.2,1.1c0,0,0-.2.2-.4.1-.2.3-.4.4-.7.2-.3.3-.6.5-.9.2-.3.4-.6.5-.9.2-.3.3-.5.4-.7.1-.2.2-.3.2-.4.2-.4.5-.8.8-1.2.3-.5.6-.9.9-1.4.3-.5.6-.9.9-1.3.3-.4.6-.8.8-1.1.5-.6,1.1-1.1,1.7-1.4s1.3-.5,2-.5,1.4.3,1.9.8.8,1.2,1,2c0,.3.1.7.1,1.1,0,.5,0,.9,0,1.4,0,.5,0,1,0,1.5,0,.5,0,1,0,1.4,0,.4,0,.7,0,1,0,.3,0,.4,0,.4.1,0,.3-.2.5-.5.2-.3.4-.7.7-1.1.3-.5.5-1,.8-1.5.3-.5.5-1,.8-1.5.4-.7.9-1.4,1.3-2.1.5-.7.9-1.2,1.4-1.7.5-.5.9-.9,1.3-1.2.4-.3.8-.4,1.1-.4s.5,0,.7,0c.2,0,.5.1.7.2s.4.2.6.3c.2.1.3.3.4.4.2.3.4.7.5,1.1,0,.4.2.8.2,1.3,0,.5,0,1,0,1.6,0,.6,0,1.2.1,1.9.1,1.3.3,2.3.6,3,.3.7.6,1.1,1.1,1.1s.5,0,.8-.2c.3-.2.7-.3,1.1-.6.4-.2.8-.5,1.2-.8.4-.3.8-.6,1.2-.9.4-.3.8-.6,1.1-1,.4-.3.7-.7,1.1-1s.7-.7,1.1-1.1c.4-.4.8-.8,1.2-1.2.3-.3.5-.4.9-.4s.6.3.6.8Z"/>
    <path d="M414.6,855.1c0,.2,0,.5-.1.8s-.2.7-.4,1.1-.3.8-.5,1.1-.4.7-.5.9c-.4.6-1,1.2-1.7,1.8-.7.6-1.6,1.3-2.6,2-.9.6-1.9,1.2-2.8,1.8-1,.6-1.9,1.1-2.9,1.6-1.1.6-2.3,1.1-3.5,1.6s-2.4,1-3.6,1.3v.9c0,.2,0,.4,0,.8,0,.4,0,.8,0,1.2,0,.5,0,1,0,1.5,0,.5,0,1,0,1.5,0,.5,0,1,0,1.4,0,.4,0,.8,0,1,0,.6-.2,1.1-.6,1.4-.4.3-.9.5-1.6.5-1.7,0-2.6-3-2.6-8.9s0-1,0-1.6,0-1.1.1-1.7c0-.6.1-1.3.2-2,0-.7.2-1.5.3-2.4.1-.7.2-1.4.3-2.1.1-.7.2-1.3.4-2s.3-1.3.5-1.9.4-1.2.7-1.9c-.4.1-.8.2-1.2.4s-.8.3-1.3.4c-.1,0-.3.1-.4.1-.1,0-.3,0-.4,0-.5,0-.8-.1-1.1-.4-.3-.3-.4-.6-.4-1s.1-.9.3-1.3c.2-.4.5-.7,1-1s1-.5,1.7-.8c.7-.2,1.6-.4,2.6-.6.6-.1,1.2-.2,1.9-.4.7-.1,1.4-.2,2.1-.3s1.4-.2,2-.2,1.2,0,1.8,0,1.3,0,1.9,0c.6,0,1.2,0,1.8,0,.6,0,1.2.1,1.7.2.6,0,1.2.2,1.8.3,1.3.3,2.4.8,3.2,1.5,1,.8,1.5,1.7,1.5,2.9ZM404.2,853.6c-1,0-2,0-3.1.2s-2.3.3-3.4.4c.4.4.5.9.5,1.5s0,.3-.1.6-.2.6-.3,1c-.1.4-.2.7-.3,1-.1.3-.2.5-.2.6,0,.2-.1.4-.2.6,0,.2-.1.5-.2.8s-.1.6-.2.9c0,.3,0,.6-.1.9,0,.4-.1.7-.2,1,0,.3,0,.5-.1.8,0,.2,0,.4,0,.6,0,.2,0,.4,0,.6.4-.2.9-.4,1.4-.6.5-.2,1-.4,1.6-.7.5-.2,1-.4,1.5-.7s.9-.4,1.3-.6c.2-.1.4-.2.7-.4.3-.1.5-.3.8-.4.3-.1.5-.3.8-.4.3-.2.5-.3.8-.4.6-.4,1.2-.8,1.8-1.2.6-.5,1.2-1,1.7-1.5.5-.5.9-1.1,1.3-1.7.3-.6.5-1.1.5-1.6s-.3-.5-.9-.6c-.9-.2-1.8-.4-2.8-.5s-1.8,0-2.6,0Z"/>
    <path d="M437.7,865.6c0,.3-.1.6-.3,1.1s-.5.9-.9,1.4c-.4.5-.8,1.1-1.3,1.7s-1.1,1.2-1.7,1.8c-.6.7-1.3,1.4-2.1,2-.8.7-1.6,1.3-2.4,1.9-.8.6-1.7,1.1-2.5,1.4s-1.6.5-2.3.5-1.6-.1-2.2-.4c-.6-.3-1.2-.7-1.6-1.2-.4-.5-.8-1.1-1.1-1.7-.3-.6-.5-1.3-.7-2-.2-.7-.3-1.4-.3-2.2,0-.7,0-1.4,0-2.1s0-.6,0-1.1c0-.5,0-1,.2-1.6,0-.6.1-1.1.2-1.6,0-.5.2-.9.2-1.2.2-.6.6-1.2,1.3-1.7.6-.5,1.3-.8,2.1-.8s1.2.5,1.2,1.4,0,.9-.1,1.4c0,.5-.2,1-.3,1.5-.2.9-.3,1.7-.3,2.4,0,.7,0,1.3,0,1.9s0,1.2.1,1.8c0,.6.2,1.1.3,1.6.1.5.3.8.5,1.1.2.3.5.4.8.4s.7,0,1.1-.1c.4,0,.9-.2,1.4-.5,1-.6,2.2-1.3,3.3-2.3.4-.3.9-.7,1.4-1.2.5-.5,1.1-.9,1.6-1.4.5-.5,1-1,1.5-1.4.5-.5.8-.9,1.1-1.2,0,0,0-.1.2-.2,0,0,.1-.2.2-.3,0,0,.2-.2.3-.2.1,0,.2,0,.3,0,.2,0,.3,0,.4,0,0,0,.2.2.3.5.1.3.2.6.2.8ZM426.4,850.6c0,.4,0,.8-.2,1.1-.1.4-.3.7-.5,1-.5.6-1.2,1-2.1,1s-.7,0-1,0c-.4,0-.7-.1-.9-.3s-.5-.2-.7-.4-.3-.4-.3-.6c0-.4,0-.8.3-1.2.2-.4.4-.8.8-1.2.3-.4.6-.7,1-.9.4-.2.7-.4,1.1-.4s.8,0,1.1,0,.6.1.8.3c.2.1.4.3.5.6s.2.5.2.9Z"/>
    <path d="M463.6,864.1c0,.3-.1.6-.3,1.1-.2.4-.5.9-.8,1.5-.3.5-.7,1.1-1.2,1.7-.4.6-.9,1.1-1.3,1.7-.4.5-.8,1-1.2,1.5-.4.4-.7.8-.9,1.1-.5.5-1,1-1.6,1.5-.6.5-1.2.9-1.8,1.3-.6.4-1.3.7-2,.9-.7.2-1.4.3-2.2.3s-1,0-1.5-.3c-.5-.2-1.1-.5-1.6-.8-.6-.3-1.1-.8-1.7-1.2-.6-.5-1.2-1-1.9-1.6-.4.3-.7.7-1,1.1s-.6.7-.8,1.1-.5.7-.6,1.1-.3.6-.4.9c-.1.3-.3.7-.4,1.1-.2.4-.3.8-.5,1.2-.3.8-.6,1.5-1,2.1-1.1,0-2-.3-2.6-.8-.6-.5-.9-1.1-.9-2.1s0-.7.2-1.1c.1-.4.3-.8.5-1.2.2-.4.4-.8.7-1.1s.5-.7.8-1c.3-.3.7-.8,1.4-1.4.6-.6,1.4-1.3,2.2-2.1-.2-.3-.5-.5-.7-.8-.3-.3-.5-.6-.8-.9-.3-.3-.5-.6-.7-.9s-.4-.5-.5-.8c-.5-1-.9-1.8-1.1-2.4-.2-.7-.3-1.2-.3-1.8s0-.6.1-.9c0-.3.2-.6.4-.8.2-.2.5-.4.8-.5s.7-.2,1.2-.2.8,0,1,.3c.2.2.4.4.6.7.1.3.2.5.3.8s0,.5.1.8c0,.8.3,1.5.5,2,.2.5.4.9.6,1.3.1.2.3.5.6.8.2.3.5.6.7.8.4-.4.7-.7,1.1-1.1.4-.4.7-.8,1-1.2.4-.4.7-.9,1-1.4.3-.5.6-1.1.8-1.8.2-.4.3-.7.5-.9.2-.2.3-.4.5-.6.2-.1.4-.2.6-.3s.5,0,.8,0,.5,0,.8.2c.3.1.5.3.7.5.2.2.4.5.5.7s.2.6.2.9,0,.6-.2.9c-.2.3-.4.7-.7,1-.3.4-.6.7-.9,1.1-.3.4-.7.8-1,1.3-.4.4-.8.9-1.3,1.5-.5.5-1.1,1.1-1.6,1.7.3.3.7.6,1.1.9s.9.6,1.4.9c.5.3.9.5,1.4.7.4.2.8.3,1.2.3.8,0,1.7-.3,2.6-.9s2-1.4,3.1-2.6c.4-.5.9-1,1.4-1.6.5-.6,1-1.3,1.7-2.1,1.3-1.6,2.1-2.4,2.5-2.4s.5,0,.7.2c.2.2.2.3.2.6Z"/>
    <path d="M483,864.7c0,.2-.2.6-.5,1.2-.6.9-1.3,1.8-2.1,2.7-.8.9-1.6,1.7-2.5,2.5-.9.8-1.8,1.5-2.7,2.2-.9.7-1.9,1.3-2.9,1.8-1,.5-1.9.9-2.9,1.2-1,.3-1.9.4-2.8.4-2.1,0-3.7-.6-4.9-1.8-1.2-1.2-1.7-2.9-1.7-5.3s0-1.9.2-2.8c.1-.9.4-1.8.7-2.7.3-.9.7-1.8,1.2-2.6s1.1-1.7,1.8-2.5c.3-.3.6-.6.9-.9s.7-.5,1.1-.7c.4-.2.8-.4,1.3-.5s.9-.2,1.3-.2c.6,0,1.2.1,1.7.4s.9.6,1.2,1,.5.9.7,1.4c.1.5.2,1.1.2,1.7,0,1.1-.4,2.2-1.2,3.4-.8,1.2-1.9,2.3-3.3,3.6-.5.4-1,.8-1.6,1.3s-1.3,1-2,1.5c0,.3.1.6.3.9.2.3.4.5.6.7.3.2.6.4.9.5.4.1.8.2,1.2.2s1.2,0,1.9-.2c.7-.2,1.3-.4,2-.6s1.3-.5,1.9-.9c.6-.3,1.2-.7,1.7-1,.9-.6,1.8-1.3,2.6-2.1s1.6-1.5,2.4-2.3l1-1c.7-.6,1.2-.9,1.7-.9s.4,0,.5.2c0,.2.1.3.1.4ZM468.8,861.3c0-.3,0-.5,0-.8,0-.2-.1-.4-.3-.5-.4,0-.9.2-1.3.5-.5.4-.9.9-1.3,1.5s-.8,1.4-1.1,2.3c-.3.9-.6,1.9-.7,3,.6-.4,1.1-.9,1.7-1.3.6-.5,1.1-1,1.6-1.5s.8-1,1.1-1.6c.3-.6.4-1.2.4-1.8Z"/>
    <path d="M498.5,866.1c0,.3,0,.6-.2,1-.1.4-.4.9-.7,1.5-.3.6-.8,1.2-1.3,1.9-.5.7-1.2,1.5-2,2.3-.4.4-1,.9-1.5,1.3-.6.4-1.2.8-1.8,1.2-.6.3-1.3.6-2,.8-.7.2-1.3.3-2,.3s-1.7-.2-2.5-.5-1.5-.8-2-1.4c-.6-.6-1-1.5-1.4-2.4-.3-1-.5-2.1-.5-3.5s0-1.8.1-2.7c0-.9.2-1.9.3-2.8.1-.9.3-1.9.4-2.8.2-.9.3-1.8.5-2.7.1-.6.2-1.1.3-1.5,0-.4.1-.9.2-1.3,0-.4.1-.9.2-1.4s.2-1.1.3-1.8c0-.3.2-.7.3-1,.1-.3.3-.6.6-.8.2-.2.5-.4.8-.6s.6-.2,1-.2c.9,0,1.6.4,2,1.3l-.2,1c-.1.6-.3,1.3-.4,2-.2.8-.4,1.6-.6,2.6s-.4,1.9-.6,2.9c-.2,1-.4,2-.5,3.1-.2,1-.3,2.1-.4,3.1-.1,1-.2,2-.2,3s0,1.4.2,2,.3,1.1.5,1.5c.2.4.5.7.9,1,.4.2.8.3,1.3.3s1-.1,1.6-.3c.5-.2,1.1-.5,1.6-.8.6-.3,1.1-.7,1.6-1.2.5-.4,1-.9,1.5-1.3.5-.4.9-.9,1.2-1.3.4-.4.7-.8.9-1.1.1-.1.2-.3.4-.5.1-.2.3-.3.4-.5s.3-.3.5-.4c.2,0,.4-.1.6-.1s.3,0,.4.2c.1.1.2.3.2.6Z"/>
    <path d="M515.5,864.1c0,.3-.1.7-.4,1.2-.3.5-.7,1-1.1,1.6-.4.5-.9,1.1-1.5,1.7-.5.6-1.1,1.1-1.6,1.6-.3.3-.8.7-1.3,1.2-.6.5-1.3,1.1-2,1.7-.7.6-1.5,1.3-2.3,1.9s-1.6,1.3-2.3,1.8-1.3,1.1-1.9,1.5c-.5.4-.9.7-1.2.9-.8.5-1.5.9-2.1,1.1-.6.3-1.2.4-1.7.4s-.8,0-1.1-.1c-.3,0-.5-.2-.7-.3-.2-.1-.3-.3-.4-.4,0-.2-.1-.3-.1-.5,0-.4,0-.8.2-1.1s.4-.6.7-.9c.3-.3.8-.6,1.3-.8.5-.3,1.1-.6,1.8-.8.5-.2.9-.4,1.2-.5.4-.2.7-.4,1-.6.3-.2.5-.4.6-.7.1-.3.2-.6.2-.9s0-.2-.2-.5c-.1-.2-.3-.5-.4-.8-.2-.3-.4-.6-.6-1-.2-.4-.4-.7-.7-1.1-.2-.3-.4-.7-.6-1-.2-.3-.3-.6-.5-.8-.5-.9-.7-1.9-.7-2.8s0-.8.1-1.3c0-.4.2-.9.4-1.3.2-.6.4-1.1.8-1.6.4-.5.8-1,1.2-1.4.4-.4.9-.8,1.3-1,.4-.3.8-.4,1.2-.4s.8,0,1.1.1c.3,0,.5.2.6.4.2.2.3.4.3.6,0,.2,0,.5,0,.9s0,.6-.2.9c-.1.3-.3.5-.5.8-.2.2-.4.5-.7.7s-.4.4-.6.5c-.3.2-.5.4-.7.6s-.4.4-.5.5c0,.8.2,1.5.6,2.1.2.3.4.7.7,1.2s.6.9.8,1.4.6.9.8,1.4.5.8.6,1c.2,0,.4-.2.8-.5.3-.2.7-.5,1.2-.9.5-.3,1-.7,1.5-1.1.5-.4,1.1-.8,1.6-1.3.5-.4,1-.9,1.5-1.3s.9-.8,1.3-1.2c.3-.3.6-.6.8-.8.2-.2.4-.4.6-.6.2-.2.3-.3.4-.3s.3-.1.4-.1.3,0,.4.2c.1.1.2.2.2.4,0,.1.1.3.1.4,0,.1,0,.2,0,.2Z"/>
    <path d="M546.1,861.3c0,.2,0,.4-.1.6,0,.2-.2.4-.4.5-.1.2-.3.3-.5.4-.2.1-.3.2-.5.3-.5.2-1.1.5-1.8.6-.6.2-1.2.3-1.9.5-.6.1-1.2.2-1.8.3s-1.1.2-1.6.2c-.3,0-.7,0-1.1.1-.4,0-.7,0-1.1.1-.4,0-.7,0-1,.1-.3,0-.6,0-.8.1-.3,1-.5,2-.8,3-.2.9-.4,1.8-.6,2.7,0,.1,0,.3-.1.6,0,.3-.1.5-.2.8s-.1.6-.2,1c0,.3,0,.6-.1.9,0,.3,0,.6-.1.8s0,.4,0,.5c0,.4,0,.7.2.9.1.2.3.3.4.4.2.2.4.4.6.6.2.2.2.4.2.7s0,.5-.3.7c-.2.2-.4.4-.6.6-.3.2-.5.3-.8.4-.3,0-.6.1-.8.1-.4,0-.8-.1-1.2-.3-.4-.2-.7-.5-.9-.8-.3-.4-.4-.8-.6-1.2-.1-.4-.2-.9-.2-1.4,0-.8,0-1.7.2-2.6.1-1,.3-1.9.5-2.9,0-.4.2-.9.3-1.4.1-.5.2-1,.3-1.5,0-.5.2-.9.3-1.2,0-.4.1-.6.1-.7-.3,0-.6,0-1.1.1-.5,0-1,0-1.7,0s-1,0-1.4-.1c-.4,0-.7-.2-.9-.4-.2-.2-.4-.4-.5-.7s-.2-.7-.2-1.2.1-.5.3-.7.5-.3.8-.4c.3,0,.6-.2.9-.2.3,0,.6,0,.9,0s.3,0,.6,0c.3,0,.6,0,1,0,.4,0,.7,0,1,0s.6,0,.8,0,.1-.1.2-.3c0-.2.2-.5.3-.9,0-.4.2-.8.3-1.2.1-.4.2-.9.3-1.3,0-.4.2-.8.3-1.2,0-.4.1-.6.2-.9.1-.5.2-1.1.3-1.7s.2-1.2.4-1.8c.2-.6.4-1,.8-1.4.3-.4.8-.6,1.4-.6s1.1.1,1.5.4.5.8.5,1.4,0,.7,0,1.1c0,.4-.1.8-.3,1.2-.3.9-.5,1.8-.7,2.6-.2.8-.4,1.5-.5,2.1-.1.6-.2,1.2-.4,1.9.5,0,1,0,1.4,0,.5,0,.9,0,1.4,0,.5,0,1,0,1.5,0,.5,0,1.1,0,1.7-.2.7,0,1.3-.2,1.8-.3.5,0,.9-.2,1.3-.2.4,0,.7-.1,1-.2s.6,0,.9,0,.3,0,.5.1c.2,0,.2.3.2.6Z"/>
    <path d="M566.5,862.1c0,.2,0,.4-.1.7,0,.2-.2.5-.4.7-.2.2-.3.4-.5.6-.2.2-.4.4-.6.5-.4.3-1.1.5-1.9.8-.8.2-1.8.3-3,.3s-.7,0-1.1,0c-.4,0-.8-.1-1.2-.2-.4,0-.8-.2-1.2-.3-.4-.1-.8-.3-1.1-.4,0,.1.1.3.2.4,0,.2,0,.4.1.6s0,.4,0,.6c0,.2,0,.3,0,.4,0,.8-.1,1.6-.4,2.3-.3.8-.6,1.5-1.1,2.2-.4.7-1,1.4-1.5,2s-1.2,1.1-1.7,1.6c-.5.4-1,.7-1.6.9-.6.3-1.2.5-1.8.6-.6.2-1.3.3-2,.4-.7,0-1.4.1-2,.1s-1.1-.1-1.6-.4c-.5-.3-1-.6-1.4-1.1-.4-.4-.7-.9-.9-1.5-.2-.6-.4-1.1-.4-1.7,0-1,.1-1.9.4-2.8s.6-1.8,1-2.6c.4-.8.9-1.7,1.5-2.5.6-.8,1.2-1.6,1.8-2.4.4-.5.8-.9,1.3-1.3.5-.4,1-.8,1.5-1.2.5-.3,1.1-.6,1.6-.8.6-.2,1.1-.3,1.6-.3s.8,0,1.1.1c.3,0,.6.2.9.4.3.2.5.4.8.6.2.3.5.5.8.9l.4.4c0,0,.4.2.8.4.4.2.9.4,1.5.6.6.2,1.2.4,1.9.5s1.2.2,1.8.2,1.1,0,1.5,0c.5,0,1,0,1.5-.1.5,0,1-.2,1.5-.4.5-.2,1.1-.4,1.8-.7,0,.1.1.2.1.4,0,.2,0,.3,0,.4ZM552.3,866.2c0-.3,0-.6,0-.9,0-.3,0-.6-.2-.9,0-.3-.2-.5-.4-.7-.2-.2-.4-.4-.7-.4-.4-.1-.8-.2-1-.4-.3-.1-.5-.2-.6-.4-.2-.1-.3-.2-.3-.3s-.1-.1-.1-.1c0,0-.2,0-.4.2s-.4.4-.6.6c-.2.3-.4.5-.7.8-.2.3-.4.6-.6.8-.3.3-.5.6-.7.9-.2.3-.4.6-.7.9-.2.3-.4.7-.6,1-.2.4-.4.7-.6,1.2-.2.4-.3.9-.4,1.4,0,.6-.1,1.1-.1,1.6s0,.4,0,.6c0,.2.1.4.2.6,0,.2.2.3.4.4.2.1.4.2.6.2.6,0,1,0,1.4,0s.7-.2,1.1-.3c.3-.1.7-.3,1-.6.3-.2.7-.5,1.2-.9.2-.2.4-.4.7-.6.2-.2.4-.5.7-.7.2-.3.4-.5.6-.8.2-.3.4-.6.6-.8,0-.1.2-.3.2-.6,0-.2.1-.5.2-.7,0-.2,0-.5,0-.7,0-.2,0-.4,0-.4h0Z"/>
    <path d="M603.2,855.1c0,.2,0,.5-.1.8,0,.3-.2.7-.4,1.1-.2.4-.3.8-.5,1.1s-.4.7-.5.9c-.4.6-1,1.2-1.7,1.8-.7.6-1.6,1.3-2.6,2-.9.6-1.9,1.2-2.8,1.8s-1.9,1.1-2.9,1.6c-1.1.6-2.3,1.1-3.5,1.6-1.2.5-2.4,1-3.6,1.3v.9c0,.2,0,.4,0,.8,0,.4,0,.8,0,1.2,0,.5,0,1,0,1.5,0,.5,0,1,0,1.5,0,.5,0,1,0,1.4,0,.4,0,.8,0,1,0,.6-.2,1.1-.6,1.4s-.9.5-1.6.5c-1.7,0-2.6-3-2.6-8.9s0-1,0-1.6,0-1.1.1-1.7c0-.6.1-1.3.2-2,0-.7.2-1.5.3-2.4.1-.7.2-1.4.3-2.1.1-.7.2-1.3.4-2s.3-1.3.5-1.9.4-1.2.7-1.9c-.4.1-.8.2-1.2.4s-.8.3-1.3.4c-.1,0-.3.1-.4.1s-.3,0-.4,0c-.5,0-.8-.1-1.1-.4-.3-.3-.4-.6-.4-1s.1-.9.3-1.3.5-.7,1-1,1-.5,1.7-.8,1.6-.4,2.6-.6c.6-.1,1.2-.2,1.9-.4s1.4-.2,2.1-.3,1.4-.2,2-.2,1.2,0,1.8,0,1.3,0,1.9,0c.6,0,1.2,0,1.8,0,.6,0,1.2.1,1.7.2.6,0,1.2.2,1.8.3,1.3.3,2.4.8,3.2,1.5,1,.8,1.5,1.7,1.5,2.9ZM592.9,853.6c-1,0-2,0-3.1.2-1.1.1-2.3.3-3.4.4.4.4.5.9.5,1.5s0,.3-.1.6-.2.6-.3,1c-.1.4-.2.7-.3,1-.1.3-.2.5-.2.6,0,.2-.1.4-.2.6,0,.2-.1.5-.2.8s-.1.6-.2.9c0,.3,0,.6-.1.9,0,.4-.1.7-.2,1,0,.3,0,.5,0,.8s0,.4,0,.6c0,.2,0,.4,0,.6.4-.2.9-.4,1.4-.6.5-.2,1-.4,1.6-.7.5-.2,1-.4,1.5-.7s.9-.4,1.3-.6c.2-.1.4-.2.7-.4.3-.1.5-.3.8-.4.3-.1.5-.3.8-.4s.5-.3.8-.4c.6-.4,1.2-.8,1.8-1.2s1.2-1,1.7-1.5c.5-.5.9-1.1,1.3-1.7.3-.6.5-1.1.5-1.6s-.3-.5-.9-.6c-.9-.2-1.8-.4-2.8-.5-1,0-1.8,0-2.6,0Z"/>
    <path d="M624.4,862.7c0,.1,0,.3,0,.4,0,.2-.1.4-.2.5,0,.2-.2.3-.4.5-.2.1-.3.2-.6.2,0,0-.2,0-.3,0-.2,0-.3,0-.5,0-.2,0-.4,0-.5,0-.2,0-.3,0-.3,0-2,.1-3.8.8-5.3,2.2-.3.3-.7.7-1,1.1-.4.4-.7.9-1.1,1.4-.3.5-.7,1-1,1.6s-.6,1.1-.9,1.7c-.2.5-.4,1-.6,1.5-.2.5-.4,1.1-.5,1.7,0,.3-.1.6-.2.8,0,.2-.1.5-.2.8,0,.2-.2.4-.3.5s-.3.3-.5.3c-.2,0-.4.2-.6.2-.2,0-.4,0-.6,0-.8,0-1.3-.4-1.6-1.1-.3-.7-.4-1.8-.4-3.1s0-.6,0-.9,0-.6,0-.8c0-.3,0-.6,0-.9,0-.3,0-.7,0-1,0-.6.1-1.2.2-2,0-.8.2-1.6.3-2.4,0-.8.2-1.6.3-2.3.1-.8.2-1.4.4-1.9.1-.6.4-1.1.7-1.5s.9-.5,1.5-.5.4,0,.6.2c.2.1.4.2.5.4.2.1.3.3.4.5s.2.3.2.5v.3c0,.3,0,.7,0,1.2s-.1.9-.2,1.5c-.1.5-.2,1-.3,1.6-.1.5-.2,1-.3,1.5-.1.5-.2.9-.3,1.3s-.2.7-.2,1c.4-.9.9-1.8,1.4-2.6.5-.8,1-1.6,1.6-2.3.6-.7,1.2-1.3,1.8-1.9.6-.6,1.3-1,2.1-1.3.6-.3,1.1-.5,1.6-.6s.9-.2,1.3-.2.9,0,1.4.1c.5,0,.9.2,1.3.4.4.2.7.4,1,.7.3.3.4.6.4.9Z"/>
    <path d="M648.2,864.7c0,.2-.2.6-.5,1.2-.6.9-1.3,1.8-2.1,2.7-.8.9-1.6,1.7-2.5,2.5-.9.8-1.8,1.5-2.7,2.2s-1.9,1.3-2.9,1.8c-1,.5-1.9.9-2.9,1.2-1,.3-1.9.4-2.8.4-2.1,0-3.7-.6-4.9-1.8-1.2-1.2-1.7-2.9-1.7-5.3s0-1.9.2-2.8c.1-.9.4-1.8.7-2.7s.7-1.8,1.2-2.6c.5-.9,1.1-1.7,1.8-2.5.3-.3.6-.6.9-.9.4-.3.7-.5,1.1-.7.4-.2.8-.4,1.3-.5.4-.1.9-.2,1.3-.2.6,0,1.2.1,1.7.4.5.2.9.6,1.2,1s.5.9.7,1.4c.1.5.2,1.1.2,1.7,0,1.1-.4,2.2-1.2,3.4-.8,1.2-1.9,2.3-3.3,3.6-.5.4-1,.8-1.6,1.3s-1.3,1-2,1.5c0,.3.1.6.3.9.2.3.4.5.6.7.3.2.6.4.9.5.4.1.8.2,1.2.2s1.2,0,1.9-.2c.7-.2,1.3-.4,2-.6s1.3-.5,1.9-.9,1.2-.7,1.7-1c.9-.6,1.8-1.3,2.6-2.1.8-.7,1.6-1.5,2.4-2.3l1-1c.7-.6,1.2-.9,1.7-.9s.4,0,.5.2.1.3.1.4ZM634,861.3c0-.3,0-.5,0-.8s-.1-.4-.3-.5c-.4,0-.9.2-1.3.5-.5.4-.9.9-1.3,1.5-.4.6-.8,1.4-1.1,2.3-.3.9-.6,1.9-.7,3,.6-.4,1.1-.9,1.7-1.3.6-.5,1.1-1,1.6-1.5s.8-1,1.1-1.6c.3-.6.4-1.2.4-1.8Z"/>
    <path d="M668.2,864.7c0,.2,0,.5,0,.6s-.2.4-.3.5-.3.4-.5.6c-.2.2-.5.5-.8.8l-1.6,1.6c-.3.3-.6.6-.9.9s-.5.4-.7.6c-.2.2-.5.4-.7.6-.3.2-.6.5-.9.8-.8.7-1.6,1.3-2.3,1.9-.8.6-1.5,1.1-2.2,1.6-1.1.7-2.3,1.2-3.5,1.6s-2.6.6-4,.6-1.7-.2-2.4-.5c-.7-.3-1.3-.8-1.8-1.3-.5-.6-.9-1.2-1.1-2-.2-.8-.4-1.6-.4-2.4,0-1.6.3-3.2,1-4.8.7-1.6,1.6-3.2,2.7-4.7.3-.4.6-.8,1-1.2s.8-.8,1.2-1.2c.4-.3.9-.6,1.3-.9.5-.2.9-.3,1.3-.3s.6,0,.8.2c.3.2.5.4.8.7.3.3.5.6.7,1s.4.8.6,1.2c.4.8.6,1.5.6,1.9s0,.5,0,.8c0,.3-.1.6-.2.8-.1.3-.3.5-.5.7-.2.2-.4.3-.7.3-.4,0-.8-.1-1.1-.4s-.5-.6-.7-1c-.2-.4-.3-.7-.5-1.1s-.2-.6-.3-.8c-.3.1-.6.3-.9.6s-.6.7-1,1.2-.6,1-.9,1.6-.5,1.2-.7,1.8c-.2.6-.4,1.3-.5,2-.1.7-.2,1.4-.2,2s.2,1.2.7,1.6c.5.5,1,.8,1.4.8,1.4,0,2.7-.3,4-.8s2.5-1.2,3.7-2c.8-.6,1.6-1.2,2.5-1.9.9-.7,1.8-1.6,2.9-2.6.4-.4.8-.7,1.1-1,.4-.3.8-.6,1.1-.9s.7-.5,1.1-.6c.3-.2.6-.2.9-.2.6,0,.9.3.9,1Z"/>
    <path d="M684.6,865.6c0,.3-.1.6-.3,1.1-.2.4-.5.9-.9,1.4-.4.5-.8,1.1-1.3,1.7s-1.1,1.2-1.7,1.8c-.6.7-1.3,1.4-2.1,2-.8.7-1.6,1.3-2.4,1.9-.8.6-1.7,1.1-2.5,1.4-.8.3-1.6.5-2.3.5s-1.6-.1-2.2-.4c-.6-.3-1.2-.7-1.6-1.2-.4-.5-.8-1.1-1.1-1.7-.3-.6-.5-1.3-.7-2-.2-.7-.3-1.4-.3-2.2,0-.7,0-1.4,0-2.1s0-.6,0-1.1c0-.5,0-1,.2-1.6,0-.6.1-1.1.2-1.6,0-.5.2-.9.2-1.2.2-.6.6-1.2,1.3-1.7.6-.5,1.3-.8,2.1-.8s1.2.5,1.2,1.4,0,.9-.1,1.4c0,.5-.2,1-.3,1.5-.2.9-.3,1.7-.3,2.4s0,1.3,0,1.9,0,1.2.1,1.8c0,.6.2,1.1.3,1.6s.3.8.5,1.1c.2.3.5.4.8.4s.7,0,1.1-.1c.4,0,.9-.2,1.4-.5,1-.6,2.2-1.3,3.3-2.3.4-.3.9-.7,1.4-1.2.5-.5,1.1-.9,1.6-1.4.5-.5,1-1,1.5-1.4.5-.5.8-.9,1.1-1.2,0,0,0-.1.2-.2,0,0,.1-.2.2-.3,0,0,.2-.2.3-.2.1,0,.2,0,.3,0,.2,0,.3,0,.4,0,0,0,.2.2.3.5.1.3.2.6.2.8ZM673.3,850.6c0,.4,0,.8-.2,1.1-.1.4-.3.7-.5,1-.5.6-1.2,1-2.1,1s-.7,0-1,0c-.4,0-.7-.1-.9-.3s-.5-.2-.7-.4c-.2-.2-.3-.4-.3-.6,0-.4,0-.8.3-1.2.2-.4.4-.8.8-1.2.3-.4.6-.7,1-.9.4-.2.7-.4,1.1-.4s.8,0,1.1,0c.3,0,.6.1.8.3s.4.3.5.6.2.5.2.9Z"/>
    <path d="M701.1,864.1c0,.3-.1.7-.4,1.2-.3.5-.7,1-1.1,1.6-.4.5-.9,1.1-1.5,1.7s-1.1,1.1-1.6,1.6c-.3.3-.8.7-1.3,1.2s-1.3,1.1-2,1.7c-.7.6-1.5,1.3-2.3,1.9s-1.6,1.3-2.3,1.8c-.7.6-1.3,1.1-1.9,1.5s-.9.7-1.2.9c-.8.5-1.5.9-2.1,1.1-.6.3-1.2.4-1.7.4s-.8,0-1.1-.1-.5-.2-.7-.3c-.2-.1-.3-.3-.4-.4,0-.2-.1-.3-.1-.5,0-.4,0-.8.2-1.1.2-.3.4-.6.7-.9.3-.3.8-.6,1.3-.8.5-.3,1.1-.6,1.8-.8.5-.2.9-.4,1.2-.5s.7-.4,1-.6c.3-.2.5-.4.6-.7s.2-.6.2-.9,0-.2-.2-.5-.3-.5-.4-.8c-.2-.3-.4-.6-.6-1-.2-.4-.4-.7-.7-1.1-.2-.3-.4-.7-.6-1-.2-.3-.3-.6-.5-.8-.5-.9-.7-1.9-.7-2.8s0-.8.1-1.3c0-.4.2-.9.4-1.3.2-.6.4-1.1.8-1.6.4-.5.8-1,1.2-1.4.4-.4.9-.8,1.3-1,.4-.3.8-.4,1.2-.4s.8,0,1.1.1.5.2.6.4c.2.2.3.4.3.6,0,.2,0,.5,0,.9s0,.6-.2.9-.3.5-.5.8c-.2.2-.4.5-.7.7-.2.2-.4.4-.6.5-.3.2-.5.4-.7.6s-.4.4-.5.5c0,.8.2,1.5.6,2.1.2.3.4.7.7,1.2.3.5.6.9.8,1.4s.6.9.8,1.4c.3.4.5.8.6,1,.2,0,.4-.2.8-.5.3-.2.7-.5,1.2-.9.5-.3,1-.7,1.5-1.1.5-.4,1.1-.8,1.6-1.3.5-.4,1-.9,1.5-1.3.5-.4.9-.8,1.3-1.2.3-.3.6-.6.8-.8.2-.2.4-.4.6-.6.2-.2.3-.3.4-.3.1,0,.3-.1.4-.1s.3,0,.4.2c.1.1.2.2.2.4,0,.1.1.3.1.4,0,.1,0,.2,0,.2Z"/>
    <path d="M717.6,865.6c0,.3-.1.6-.3,1.1-.2.4-.5.9-.9,1.4-.4.5-.8,1.1-1.3,1.7s-1.1,1.2-1.7,1.8c-.6.7-1.3,1.4-2.1,2-.8.7-1.6,1.3-2.4,1.9-.8.6-1.7,1.1-2.5,1.4-.8.3-1.6.5-2.3.5s-1.6-.1-2.2-.4c-.6-.3-1.2-.7-1.6-1.2-.4-.5-.8-1.1-1.1-1.7-.3-.6-.5-1.3-.7-2-.2-.7-.3-1.4-.3-2.2,0-.7,0-1.4,0-2.1s0-.6,0-1.1c0-.5,0-1,.2-1.6,0-.6.1-1.1.2-1.6,0-.5.2-.9.2-1.2.2-.6.6-1.2,1.3-1.7.6-.5,1.3-.8,2.1-.8s1.2.5,1.2,1.4,0,.9-.1,1.4c0,.5-.2,1-.3,1.5-.2.9-.3,1.7-.3,2.4s0,1.3,0,1.9,0,1.2.1,1.8c0,.6.2,1.1.3,1.6s.3.8.5,1.1c.2.3.5.4.8.4s.7,0,1.1-.1c.4,0,.9-.2,1.4-.5,1-.6,2.2-1.3,3.3-2.3.4-.3.9-.7,1.4-1.2.5-.5,1.1-.9,1.6-1.4.5-.5,1-1,1.5-1.4.5-.5.8-.9,1.1-1.2,0,0,0-.1.2-.2,0,0,.1-.2.2-.3,0,0,.2-.2.3-.2.1,0,.2,0,.3,0,.2,0,.3,0,.4,0,0,0,.2.2.3.5.1.3.2.6.2.8ZM706.2,850.6c0,.4,0,.8-.2,1.1-.1.4-.3.7-.5,1-.5.6-1.2,1-2.1,1s-.7,0-1,0c-.4,0-.7-.1-.9-.3s-.5-.2-.7-.4c-.2-.2-.3-.4-.3-.6,0-.4,0-.8.3-1.2.2-.4.4-.8.8-1.2.3-.4.6-.7,1-.9.4-.2.7-.4,1.1-.4s.8,0,1.1,0c.3,0,.6.1.8.3s.4.3.5.6.2.5.2.9Z"/>
    <path d="M740.6,862.1c0,.2,0,.4-.1.7,0,.2-.2.5-.4.7-.2.2-.3.4-.5.6-.2.2-.4.4-.6.5-.4.3-1.1.5-1.9.8-.8.2-1.8.3-3,.3s-.7,0-1.1,0c-.4,0-.8-.1-1.2-.2-.4,0-.8-.2-1.2-.3-.4-.1-.8-.3-1.1-.4,0,.1.1.3.2.4,0,.2,0,.4.1.6s0,.4,0,.6c0,.2,0,.3,0,.4,0,.8-.1,1.6-.4,2.3-.3.8-.6,1.5-1.1,2.2-.4.7-1,1.4-1.5,2s-1.2,1.1-1.7,1.6c-.5.4-1,.7-1.6.9-.6.3-1.2.5-1.8.6-.6.2-1.3.3-2,.4-.7,0-1.4.1-2,.1s-1.1-.1-1.6-.4c-.5-.3-1-.6-1.4-1.1-.4-.4-.7-.9-.9-1.5-.2-.6-.4-1.1-.4-1.7,0-1,.1-1.9.4-2.8s.6-1.8,1-2.6c.4-.8.9-1.7,1.5-2.5.6-.8,1.2-1.6,1.8-2.4.4-.5.8-.9,1.3-1.3.5-.4,1-.8,1.5-1.2.5-.3,1.1-.6,1.6-.8.6-.2,1.1-.3,1.6-.3s.8,0,1.1.1c.3,0,.6.2.9.4.3.2.5.4.8.6.2.3.5.5.8.9l.4.4c0,0,.4.2.8.4.4.2.9.4,1.5.6.6.2,1.2.4,1.9.5s1.2.2,1.8.2,1.1,0,1.5,0c.5,0,1,0,1.5-.1.5,0,1-.2,1.5-.4.5-.2,1.1-.4,1.8-.7,0,.1.1.2.1.4,0,.2,0,.3,0,.4ZM726.4,866.2c0-.3,0-.6,0-.9,0-.3,0-.6-.2-.9,0-.3-.2-.5-.4-.7-.2-.2-.4-.4-.7-.4-.4-.1-.8-.2-1-.4-.3-.1-.5-.2-.6-.4-.2-.1-.3-.2-.3-.3s-.1-.1-.1-.1c0,0-.2,0-.4.2s-.4.4-.6.6c-.2.3-.4.5-.7.8-.2.3-.4.6-.6.8-.3.3-.5.6-.7.9-.2.3-.4.6-.7.9-.2.3-.4.7-.6,1-.2.4-.4.7-.6,1.2-.2.4-.3.9-.4,1.4,0,.6-.1,1.1-.1,1.6s0,.4,0,.6c0,.2.1.4.2.6,0,.2.2.3.4.4.2.1.4.2.6.2.6,0,1,0,1.4,0s.7-.2,1.1-.3c.3-.1.7-.3,1-.6.3-.2.7-.5,1.2-.9.2-.2.4-.4.7-.6.2-.2.4-.5.7-.7.2-.3.4-.5.6-.8.2-.3.4-.6.6-.8,0-.1.2-.3.2-.6,0-.2.1-.5.2-.7,0-.2,0-.5,0-.7,0-.2,0-.4,0-.4h0Z"/>
    <path d="M768,864.2c0,.2,0,.5-.1.8,0,.3-.2.5-.3.8-.1.3-.3.5-.4.8-.2.2-.3.4-.4.6-.4.5-.8,1-1.3,1.5-.5.5-1,1.1-1.5,1.6-.5.5-1.1,1-1.6,1.5-.5.5-1.1.9-1.6,1.3-.4.3-.8.6-1.2.8-.4.2-.8.5-1.2.7-.4.2-.9.3-1.3.5s-1,.2-1.5.2c-.9,0-1.7-.2-2.3-.5s-1.1-.8-1.5-1.5-.7-1.3-.9-2.1c-.2-.8-.4-1.6-.5-2.4-.2-1.2-.3-2.1-.5-2.7-.2-.7-.4-1-.7-1s-.5,0-.7.2-.5.4-.9.7-.8.9-1.3,1.6c-.5.7-1.2,1.7-2.1,2.9-.3.4-.6.9-1.1,1.4-.4.5-.9,1-1.3,1.5-.5.5-.9.9-1.4,1.2-.5.4-.9.6-1.3.7-1.5-.3-2.3-1.8-2.3-4.4s0-1.6.2-2.9c0-.6.2-1.2.2-1.8,0-.6.2-1.3.3-1.9.1-.6.3-1.3.5-1.9.2-.6.4-1.2.7-1.7.1-.3.3-.5.5-.7s.4-.3.6-.4c.2,0,.4-.1.6-.2.2,0,.4,0,.6,0s.4,0,.5.1c.2,0,.3.2.5.4.1.2.2.4.3.6,0,.2.1.5.1.8s0,.5,0,.8c0,.3-.1.5-.2.8,0,.3-.2.6-.3.9,0,.3-.2.6-.3,1,0,.3-.1.6-.3,1s-.2.8-.3,1.2-.2.9-.3,1.3c0,.4-.2.8-.2,1,.2-.3.5-.6.8-1,.3-.4.6-.8.9-1.2s.6-.9,1-1.4c.3-.5.7-.9,1-1.3.4-.5.8-1,1.3-1.5.4-.5.8-.9,1.3-1.2s.9-.6,1.5-.8c.5-.2,1.1-.3,1.8-.3s1.4.2,1.9.5c.5.3.9.8,1.2,1.3.3.6.5,1.2.7,2,.1.8.3,1.6.3,2.6,0,.5.1,1,.2,1.5,0,.5.2.9.4,1.4.2.4.4.7.6,1s.6.4.9.4c.6,0,1.2-.1,1.8-.4.7-.3,1.4-.7,2.1-1.2.7-.5,1.5-1.1,2.2-1.8.8-.7,1.5-1.4,2.3-2.2.2-.3.5-.5.7-.8.2-.2.4-.5.6-.7s.4-.4.6-.5c.2-.1.4-.2.6-.2s.2,0,.3,0c0,0,.2,0,.3.1s.2.1.2.2,0,.2,0,.4Z"/>
  </g>
</svg>